<?xml version="1.0" encoding="utf-8"?>
<!-- Generator: Adobe Illustrator 18.1.1, SVG Export Plug-In . SVG Version: 6.00 Build 0)  -->
<svg version="1.1" id="Layer_1" xmlns="http://www.w3.org/2000/svg" xmlns:xlink="http://www.w3.org/1999/xlink" x="0px" y="0px"
	 viewBox="0 0 982 60" enable-background="new 0 0 982 60" xml:space="preserve">
<g>
	<g>
		<path fill="#464646" d="M24,36.2v6h6v-6H24z M28,40.2h-2v-2h2V40.2z"/>
		<path fill="#464646" d="M42,18.2v6h6v-6H42z M46,22.2h-2v-2h2V22.2z"/>
		<polygon fill="#464646" points="29.2,39.4 26.9,37.1 42.9,21.1 45.2,23.4 		"/>
	</g>
	<polygon fill="#464646" points="89.1,42.2 82,29 92.5,18.2 106,24.8 103.9,39.6 	"/>
	<rect x="146" y="20.2" fill="#464646" width="20" height="20"/>
	<path fill="#464646" d="M227,30.2c0,6.1-4.9,11-11,11s-11-4.9-11-11c0-6.1,4.9-11,11-11S227,24.2,227,30.2z"/>
	<path fill="#464646" d="M276,18.7c-5,0-9,4-9,9s5,12,9,14c4-2,9-9,9-14S281,18.7,276,18.7z M276,31.2c-2.5,0-4.5-2-4.5-4.5
		c0-2.5,2-4.5,4.5-4.5c2.5,0,4.5,2,4.5,4.5C280.5,29.2,278.5,31.2,276,31.2z"/>
	<g>
		<path fill="#464646" d="M343,30.9v0.4v5.6c0,1.7-1.3,3-3,3h-10c-1.7,0-3-1.3-3-3v-10c0-1.7,1.3-3,3-3h6.3l3.2-3.2H330
			c-3.3,0-6,2.7-6,6v10c0,3.3,2.7,6,6,6h10c3.3,0,6-2.7,6-6v-8.8L343,30.9"/>
		<polygon fill="#464646" points="335.9,34.3 333,34.3 333,31.5 341.9,22.6 344.7,25.4 		"/>
		
			<rect x="344.7" y="18.6" transform="matrix(0.707 0.7072 -0.7072 0.707 116.1408 -239.1913)" fill="#464646" width="4" height="4"/>
	</g>
	<g>
		<path fill="#464646" d="M387,43.2h18v-18h-18V43.2z M401,27.2h2v14h-2V27.2z M397,27.2h2v14h-2V27.2z M393,27.2h2v14h-2V27.2z
			 M389,27.2h2v14h-2V27.2z"/>
		<path fill="#464646" d="M401,21.2v-2v-2h-10v2v2h-6v2h22v-2H401z M399,21.2h-6v-2h6V21.2z"/>
	</g>
	<g>
		<path id="rect4315" inkscape:export-xdpi="300" inkscape:export-ydpi="300" fill="#464646" d="M454.9,18.2c-0.6,0-1.1,0.1-1.6,0.2
			c-0.5,0.1-1,0.3-1.4,0.7l-4.4,4.9c-0.8,0.9-1.2,2.1-0.7,3.1s1.7,1.5,3.1,1.5h0.1l-2.5,2.8c-0.8,0.9-1.2,2.1-0.7,3.1
			c0.5,1,1.6,1.4,2.9,1.5l-2.1,2.4c-0.8,0.9-1.2,2.1-0.7,3.1s1.7,1.5,3.1,1.5h16.4c1.4,0,2.6-0.5,3.1-1.5s0.1-2.2-0.7-3.1l-2.1-2.4
			c1.3,0,2.4-0.5,2.9-1.5c0.5-1,0.1-2.2-0.7-3.1l-2.5-2.8h0.2c1.4,0,2.6-0.5,3.1-1.5s0.1-2.2-0.7-3.1l-0.2-0.2l-1.4,1.4l0.1,0.1
			c0.5,0.6,0.5,0.9,0.4,1c0,0.1-0.3,0.4-1.3,0.4h-0.7l-2,2l2.2,2.4l1.5,1.6c0.5,0.6,0.5,0.9,0.4,1c0,0.1-0.3,0.4-1.3,0.4h-16.4
			c-1,0-1.3-0.3-1.4-0.4c0-0.1-0.1-0.4,0.4-1l3.7-4.1h3.1l0.1-0.3c0.1-0.2,0.2-0.4,0.4-0.6l1-1h-7.3c-1,0-1.3-0.3-1.4-0.4
			c0-0.1-0.1-0.4,0.4-1l4.4-4.9c-0.1,0.1,0.1-0.1,0.4-0.2c0.3-0.1,0.7-0.1,1.1-0.1h6.3c0.4,0,0.8,0.1,1.1,0.1
			c0.3,0.1,0.5,0.3,0.4,0.2l0.3,0.4l1.4-1.4l-0.3-0.3c-0.4-0.5-0.9-0.6-1.4-0.7c-0.5-0.1-1.1-0.2-1.6-0.2H454.9z M452.2,36.1h11.6
			l1.8,2l1.5,1.6c0.5,0.6,0.5,0.9,0.4,1c0,0.1-0.3,0.4-1.3,0.4h-16.4c-1,0-1.3-0.3-1.4-0.4c0-0.1-0.1-0.4,0.4-1L452.2,36.1z"/>
		<path id="rect4442" inkscape:connector-curvature="0" inkscape:export-xdpi="300" inkscape:export-ydpi="300" fill="#464646" d="
			M468.5,17.5l-2.1,2.1l2.1,2.1l2.1-2.1L468.5,17.5z M465.7,20.3l-8.5,8.5l-1,3.1l3.1-1l8.5-8.5L465.7,20.3L465.7,20.3z"/>
	</g>
	<g>
		<path fill="#BBBBBB" d="M511.4,35.8v6h6v-6H511.4z M515.4,39.8h-2v-2h2V39.8z"/>
		<path fill="#BBBBBB" d="M529.4,17.8v6h6v-6H529.4z M533.4,21.8h-2v-2h2V21.8z"/>
		<polygon fill="#BBBBBB" points="516.5,38.9 514.2,36.6 530.2,20.6 532.5,22.9 		"/>
	</g>
	<polygon fill="#BBBBBB" points="576.5,41.8 569.4,28.5 579.8,17.8 593.4,24.3 591.3,39.1 	"/>
	<rect x="633.4" y="19.8" fill="#BBBBBB" width="20" height="20"/>
	<path fill="#BBBBBB" d="M714.4,29.8c0,6.1-4.9,11-11,11c-6.1,0-11-4.9-11-11c0-6.1,4.9-11,11-11C709.5,18.8,714.4,23.7,714.4,29.8z
		"/>
	<path fill="#BBBBBB" d="M763.4,18.3c-5,0-9,4-9,9s5,12,9,14c4-2,9-9,9-14S768.4,18.3,763.4,18.3z M763.4,30.8c-2.5,0-4.5-2-4.5-4.5
		c0-2.5,2-4.5,4.5-4.5c2.5,0,4.5,2,4.5,4.5C767.9,28.7,765.9,30.8,763.4,30.8z"/>
	<g>
		<path fill="#BBBBBB" d="M830.4,30.4v0.4v5.6c0,1.7-1.3,3-3,3h-10c-1.7,0-3-1.3-3-3v-10c0-1.7,1.3-3,3-3h6.3l3.2-3.2h-9.5
			c-3.3,0-6,2.7-6,6v10c0,3.3,2.7,6,6,6h10c3.3,0,6-2.7,6-6v-8.8L830.4,30.4"/>
		<polygon fill="#BBBBBB" points="823.2,33.8 820.4,33.8 820.4,31 829.3,22.1 832.1,24.9 		"/>
		
			<rect x="832.1" y="18.1" transform="matrix(0.707 0.7072 -0.7072 0.707 258.583 -583.9985)" fill="#BBBBBB" width="4" height="4"/>
	</g>
	<g>
		<path fill="#BBBBBB" d="M874.4,42.8h18v-18h-18V42.8z M888.4,26.8h2v14h-2V26.8z M884.4,26.8h2v14h-2V26.8z M880.4,26.8h2v14h-2
			V26.8z M876.4,26.8h2v14h-2V26.8z"/>
		<path fill="#BBBBBB" d="M888.4,20.8v-2v-2h-10v2v2h-6v2h22v-2H888.4z M886.4,20.8h-6v-2h6V20.8z"/>
	</g>
	<g>
		<path id="rect4315_2_" inkscape:export-xdpi="300" inkscape:export-ydpi="300" fill="#BBBBBB" d="M942.2,17.7
			c-0.6,0-1.1,0.1-1.6,0.2c-0.5,0.1-1,0.3-1.4,0.7l-4.4,4.9c-0.8,0.9-1.2,2.1-0.7,3.1c0.5,1,1.7,1.5,3.1,1.5h0.1l-2.5,2.8
			c-0.8,0.9-1.2,2.1-0.7,3.1c0.5,1,1.6,1.4,2.9,1.5l-2.1,2.4c-0.8,0.9-1.2,2.1-0.7,3.1c0.5,1,1.7,1.5,3.1,1.5h16.4
			c1.4,0,2.6-0.5,3.1-1.5c0.5-1,0.1-2.2-0.7-3.1l-2.1-2.4c1.3,0,2.4-0.5,2.9-1.5c0.5-1,0.1-2.2-0.7-3.1l-2.5-2.8h0.2
			c1.4,0,2.6-0.5,3.1-1.5s0.1-2.2-0.7-3.1l-0.2-0.2l-1.4,1.4l0.1,0.1c0.5,0.6,0.5,0.9,0.4,1c0,0.1-0.3,0.4-1.3,0.4h-0.7l-2,2
			l2.2,2.4l1.5,1.6c0.5,0.6,0.5,0.9,0.4,1c0,0.1-0.3,0.4-1.3,0.4h-16.4c-1,0-1.3-0.3-1.4-0.4c0-0.1-0.1-0.4,0.4-1l3.7-4.1h3.1
			l0.1-0.3c0.1-0.2,0.2-0.4,0.4-0.6l1-1h-7.3c-1,0-1.3-0.3-1.4-0.4c0-0.1-0.1-0.4,0.4-1l4.4-4.9c-0.1,0.1,0.1-0.1,0.4-0.2
			c0.3-0.1,0.7-0.1,1.1-0.1h6.3c0.4,0,0.8,0.1,1.1,0.1s0.5,0.3,0.4,0.2l0.3,0.4l1.4-1.4l-0.3-0.3c-0.4-0.5-0.9-0.6-1.4-0.7
			c-0.5-0.1-1.1-0.2-1.6-0.2H942.2z M939.6,35.6h11.6l1.8,2l1.5,1.6c0.5,0.6,0.5,0.9,0.4,1c0,0.1-0.3,0.4-1.3,0.4h-16.4
			c-1,0-1.3-0.3-1.4-0.4c0-0.1-0.1-0.4,0.4-1L939.6,35.6z"/>
		
			<path id="rect4442_2_" inkscape:connector-curvature="0" inkscape:export-xdpi="300" inkscape:export-ydpi="300" fill="#BBBBBB" d="
			M955.9,17l-2.1,2.1l2.1,2.1l2.1-2.1L955.9,17z M953.1,19.8l-8.5,8.5l-1,3.1l3.1-1l8.5-8.5L953.1,19.8L953.1,19.8z"/>
	</g>
</g>
</svg>
